<svg xmlns="http://www.w3.org/2000/svg" xmlns:xlink="http://www.w3.org/1999/xlink" version="1.1" x="0px" y="0px" viewBox="0 0 100 125" enable-background="new 0 0 100 100" xml:space="preserve"><g><path fill="#E74C3C" d="M50,0C22.386,0,0,22.386,0,50s22.386,50,50,50s50-22.386,50-50S77.614,0,50,0z M94,50   c0,11.054-4.106,21.16-10.861,28.896L21.104,16.861C28.84,10.106,38.946,6,50,6C74.262,6,94,25.738,94,50z M6,50   c0-11.053,4.106-21.16,10.861-28.896l62.035,62.035C71.16,89.894,61.054,94,50,94C25.738,94,6,74.262,6,50z"/><circle fill="#E74C3C" cx="52.552" cy="35.495" r="3.942"/><circle fill="#E74C3C" cx="51.623" cy="26.68" r="2.354"/><circle fill="#E74C3C" cx="45.49" cy="21.206" r="4.872"/><path fill="#E74C3C" d="M66.24,79.23L54,58.34V45.83c1-0.157,1-0.786,1-1.576v-0.657C55,42.689,54.554,42,53.646,42h-2.208h-2.81   H46.42C45.514,42,45,42.689,45,43.597v0.657c0,0.79,0,1.419,1,1.576v12.51L33.795,79.23C32.247,81.906,33.421,84,36.512,84h27.044   C66.646,84,67.787,81.906,66.24,79.23z"/></g><text x="0" y="115" fill="#E74C3C" font-size="5px" font-weight="bold" font-family="'Helvetica Neue', Helvetica, Arial-Unicode, Arial, Sans-serif"></text><text x="0" y="120" fill="#E74C3C" font-size="5px" font-weight="bold" font-family="'Helvetica Neue', Helvetica, Arial-Unicode, Arial, Sans-serif"></text></svg>
