<svg xmlns="http://www.w3.org/2000/svg" xmlns:xlink="http://www.w3.org/1999/xlink" xmlns:sketch="http://www.bohemiancoding.com/sketch/ns" viewBox="0 0 100 125" version="1.1" x="0px" y="0px"><title>1 copy 2</title><desc>Created with Sketch.</desc><g stroke="none" stroke-width="1" fill="none" fill-rule="evenodd" sketch:type="MSPage"><path d="M79.1749406,67.1859021 C78.7182346,69.7262595 78.002468,72.216368 77.0812395,74.6260785 C76.7786299,75.4177766 76.445871,76.1960751 76.0997124,76.9687904 C71.275825,48.7881316 52.342067,38.2783103 52.342067,38.2783103 C52.9629192,38.9326617 53.5748383,39.5948296 54.1767076,40.2681639 C60.5013599,47.3443153 65.6702892,55.4600592 69.2055734,64.2770534 C72.5532619,72.6261751 73.6565028,80.9697137 74.3432368,89.8961386 C74.5576318,92.6821569 70.6996385,95.4692919 69.520466,94.9333044 C68.4775237,94.4598488 69.0302608,89.9073051 68.9777787,88.9626271 C68.837082,86.4446026 68.3692096,83.8104474 66.6149672,81.8786591 C64.0064947,79.0077762 59.7476275,77.5226442 56.3787228,75.7963178 C48.9519462,71.9930399 41.8813779,67.590126 35.1357521,62.6769074 C13.962013,47.2561007 21.7963635,17.3044499 25.6699897,6.17935964 C26.1378621,4.83715764 27.9233704,4.57586374 28.7519177,5.73158676 C30.6167075,8.33224271 34.8409589,12.0506559 44.348037,16.260391 C47.2792186,17.5579273 50.1233022,19.0497592 52.8557217,20.7258367 C64.4207684,27.8220877 75.2197996,39.3380022 78.6088039,52.6885572 C79.7879763,57.3348988 80.0704864,62.2034518 79.1749406,67.1859021" fill="#E74C3C" sketch:type="MSShapeGroup"/></g><text x="0" y="115" fill="#E74C3C" font-size="5px" font-weight="bold" font-family="'Helvetica Neue', Helvetica, Arial-Unicode, Arial, Sans-serif"></text><text x="0" y="120" fill="#E74C3C" font-size="5px" font-weight="bold" font-family="'Helvetica Neue', Helvetica, Arial-Unicode, Arial, Sans-serif"></text></svg>
