<?xml version="1.0" encoding="utf-8"?><!DOCTYPE svg PUBLIC "-//W3C//DTD SVG 1.1//EN" "http://www.w3.org/Graphics/SVG/1.1/DTD/svg11.dtd"><svg version="1.1" xmlns="http://www.w3.org/2000/svg" xmlns:xlink="http://www.w3.org/1999/xlink" x="0px" y="0px" viewBox="0 0 100 78.2825" enable-background="new 0 0 100 62.626" xml:space="preserve"><path style="fill:#E74C3C;" d="M42.517,48.592c-0.304-0.037-0.623,0.134-0.786,0.416l-2.126,3.652c-0.218,0.377-0.1,0.891,0.277,1.109l4.067,2.311
	c0.377,0.218,0.845,0.1,1.063-0.277l2.126-3.651c0.218-0.377,0.1-0.892-0.277-1.109l-4.067-2.312
	C42.7,48.676,42.618,48.605,42.517,48.592L42.517,48.592z"/><path style="fill:#E74C3C;" d="M46.533,40.881c-0.101,0.015-0.183,0.038-0.277,0.092l-4.067,2.357c-0.377,0.218-0.495,0.686-0.277,1.062l2.126,3.698
	c0.218,0.376,0.686,0.495,1.063,0.276l4.067-2.356c0.377-0.218,0.495-0.687,0.277-1.063l-2.126-3.697
	C47.156,40.967,46.837,40.842,46.533,40.881L46.533,40.881z"/><path style="fill:#E74C3C;" d="M38.536,43.34c-0.201,0-0.401,0.077-0.555,0.231l-3.328,3.327c-0.308,0.309-0.308,0.802,0,1.109l3.004,3.004
	c0.308,0.309,0.802,0.309,1.109,0l3.328-3.327c0.308-0.308,0.308-0.802,0-1.109l-3.004-3.004
	C38.937,43.417,38.737,43.34,38.536,43.34z"/><path style="fill:#E74C3C;" d="M1.315,33.937c-0.047,0.013-0.093,0.028-0.139,0.046c-0.8,0.168-1.312,0.951-1.145,1.751
	c0.128,0.608,0.622,1.072,1.237,1.161c11.205,1.849,21.086,6.441,29.997,13.127c-0.066,1.426,0.293,2.873,1.202,4.113
	c1.264,1.725,3.222,3.188,5.639,4.206c2.417,1.019,4.841,1.391,6.979,1.108c2.138-0.281,4.146-1.279,4.992-3.188
	s0.201-4.007-1.063-5.731c-0.506-0.69-1.133-1.342-1.849-1.941l-1.017,0.602l1.34,0.739c1.021,0.59,1.303,1.843,0.74,2.819
	l-0.786,1.341c0.042,0.37,0.03,0.692-0.093,0.971c-0.169,0.381-0.53,0.741-1.063,1.017L46.102,56.4
	c-0.551,0.953-1.834,1.281-2.773,0.738L42.081,56.4c-0.901-0.155-1.863-0.383-2.819-0.786c-1.981-0.835-3.57-2.052-4.437-3.235
	c-0.75-1.023-0.892-1.847-0.74-2.496c0.016-0.016,0.031-0.03,0.046-0.046c0.046-0.118,0.078-0.243,0.092-0.37
	c0.016-0.029,0.028-0.062,0.046-0.092l-0.509-0.51c-0.67-0.67-0.801-1.717-0.323-2.496c-0.366,0.267-0.711,0.544-1.017,0.879
	c-9.086-6.689-19.243-11.377-30.69-13.266c-0.091-0.023-0.184-0.039-0.277-0.046C1.407,33.935,1.361,33.935,1.315,33.937
	L1.315,33.937z"/><path style="fill:#E74C3C;" d="M47.402,0c-0.416,0-0.834,0.156-1.202,0.37c-2.27,1.521-3.718,4.104-5.361,6.378c-1.209,1.985-3.21,3.372-3.929,5.731
	c-0.598,2.054,0.692,4.071,2.08,5.223c3.054,2.525,6.932,3.346,10.631,3.42c3.8-0.012,7.816-0.824,10.954-3.42
	c1.398-1.161,2.712-3.255,2.033-5.315c-0.853-1.753-2.393-2.805-3.789-3.929c-2.31-1.553-4.412-3.457-6.471-5.408
	C50.868,1.787,49.337,0.141,47.402,0L47.402,0z"/><path style="fill:#E74C3C;" d="M53.78,2.172c2.119,1.851,4.24,3.62,6.518,5.038h0.047l0.045,0.046c1.454,1.083,3.387,2.306,4.53,4.483l0.046,0.092
	l0.047,0.093c0.517,1.454,0.213,2.896-0.37,4.067c-0.583,1.171-1.45,2.122-2.357,2.819c-1.402,1.075-2.94,1.877-4.529,2.45
	c-0.046,0.016-0.093,0.03-0.139,0.046c-0.376,0.134-0.757,0.256-1.155,0.37c-0.107,0.03-0.217,0.064-0.324,0.093
	c-0.297,0.08-0.615,0.116-0.924,0.185c-0.408,0.089-0.792,0.211-1.202,0.277c-0.374,0.061-0.734,0.095-1.108,0.139
	c-0.109,0.014-0.215,0.035-0.324,0.046c-0.988,0.103-1.99,0.136-2.958,0.138c-0.893-0.006-1.787-0.047-2.635-0.138
	c-0.448-0.047-0.892-0.114-1.34-0.185c-0.812-0.129-1.602-0.288-2.403-0.508c-0.417-0.115-0.837-0.273-1.248-0.416
	c-1.653-0.575-3.255-1.378-4.714-2.496c-0.899-0.691-1.778-1.624-2.357-2.773c-0.579-1.15-0.868-2.583-0.416-4.021
	c0.968-2.944,3.313-4.415,4.391-6.055l0.046-0.046V5.87c0.624-0.8,1.263-1.659,1.941-2.542c-1.841,0.594-3.515,1.336-4.945,2.218
	c-3.502,2.161-5.546,5.003-5.546,8.089c0,0.2,0.029,0.402,0.046,0.601c-0.017,0.199-0.046,0.4-0.046,0.601
	c0,3.085,2.044,5.928,5.546,8.088c3.502,2.16,8.409,3.605,13.866,3.605s10.364-1.445,13.866-3.605
	c3.503-2.16,5.546-5.003,5.546-8.088c0-0.201-0.028-0.402-0.045-0.601c0.017-0.199,0.045-0.4,0.045-0.601
	c0-3.085-2.043-5.928-5.546-8.089C61.045,3.926,57.627,2.68,53.78,2.172L53.78,2.172z"/><path style="fill:#E74C3C;" d="M68.385,21.584c-1.015,1.191-2.302,2.272-3.789,3.189c-3.356,2.07-7.764,3.349-12.664,3.651h-0.186
	c-0.646,0.037-1.281,0.092-1.941,0.092c-0.66,0-1.295-0.059-1.941-0.092h-0.185c-4.9-0.302-9.308-1.582-12.664-3.651
	c-1.458-0.899-2.739-1.935-3.744-3.097c-0.18,1.208-0.223,2.436,0,3.651c0.063,4.678,3.704,8.191,7.396,9.984
	c5.409,2.614,11.688,3.237,17.471,1.756c0.55-3.752,3.212-7.048,6.979-9.383c1.567-0.971,3.347-1.792,5.269-2.449
	c0.002-0.016,0-0.031,0-0.046C68.538,23.995,68.536,22.782,68.385,21.584L68.385,21.584z"/><path style="fill:#E74C3C;" d="M77.26,22.371c-0.436,0-0.785,0.35-0.785,0.786v4.252c0,0.436,0.35,0.786,0.785,0.786h4.715
	c0.436,0,0.785-0.351,0.785-0.786v-4.252c0-0.436-0.35-0.786-0.785-0.786H77.26z"/><path style="fill:#E74C3C;" d="M75.412,25.329c-0.466,0.05-0.933,0.12-1.387,0.185l1.387,1.34V25.329z"/><path style="fill:#E74C3C;" d="M72.176,25.467c-0.201,0-0.4,0.077-0.555,0.231l-3.328,3.328c-0.308,0.308-0.308,0.802,0,1.109l3.004,3.004
	c0.309,0.308,0.802,0.308,1.109,0l3.328-3.328c0.308-0.308,0.308-0.801,0-1.109l-3.004-3.004
	C72.577,25.544,72.377,25.467,72.176,25.467z"/><path style="fill:#E74C3C;" d="M83.823,25.513v1.571l1.711-0.97c0.18-0.104,0.358-0.154,0.555-0.185C85.351,25.764,84.597,25.628,83.823,25.513
	L83.823,25.513z"/><path style="fill:#E74C3C;" d="M87.66,26.345c0.168,0.131,0.302,0.264,0.416,0.462l2.173,3.697c0.037,0.064,0.063,0.118,0.092,0.185
	c2.847,1.654,4.622,3.92,4.622,6.424c0,5.078-7.233,9.198-16.131,9.198s-16.085-4.12-16.085-9.198c0-2.497,1.752-4.767,4.576-6.424
	c-0.535-0.727-0.468-1.797,0.186-2.45l1.663-1.664c-2.032,0.64-3.878,1.473-5.454,2.45c-3.816,2.365-6.055,5.513-6.055,8.875
	s2.238,6.474,6.055,8.828c3.816,2.354,9.168,3.883,15.114,3.883s11.298-1.529,15.114-3.883S100,41.262,100,37.9
	s-2.238-6.51-6.055-8.875C92.161,27.92,90.02,27.011,87.66,26.345L87.66,26.345z"/><path style="fill:#E74C3C;" d="M86.366,26.992c-0.102,0.013-0.184,0.038-0.277,0.092l-4.067,2.357c-0.377,0.218-0.495,0.686-0.277,1.063l2.126,3.698
	c0.218,0.377,0.686,0.494,1.062,0.277L89,32.123c0.377-0.219,0.494-0.687,0.277-1.063l-2.127-3.698
	C86.989,27.079,86.669,26.954,86.366,26.992z"/><path style="fill:#E74C3C;" d="M77.26,30.366c-0.304-0.038-0.623,0.133-0.785,0.416l-2.127,3.651c-0.217,0.377-0.1,0.892,0.277,1.109l4.067,2.311
	c0.377,0.219,0.846,0.101,1.063-0.277l2.126-3.65c0.218-0.377,0.1-0.893-0.277-1.109l-4.067-2.312
	C77.444,30.451,77.362,30.379,77.26,30.366z"/><path style="fill:#E74C3C;" d="M69.542,32.678c-0.102,0.013-0.184,0.037-0.277,0.092l-4.067,2.357c-0.377,0.217-0.495,0.686-0.277,1.062l2.126,3.697
	c0.218,0.377,0.686,0.496,1.062,0.277l4.068-2.311c0.377-0.218,0.494-0.732,0.277-1.109l-2.127-3.651
	C70.165,32.811,69.845,32.639,69.542,32.678L69.542,32.678z"/><path style="fill:#E74C3C;" d="M88.446,33.371c-0.304,0.041-0.562,0.238-0.647,0.555l-1.109,4.113c-0.112,0.42,0.134,0.857,0.555,0.971l4.53,1.201
	c0.42,0.113,0.857-0.134,0.971-0.555l1.108-4.113c0.112-0.42-0.134-0.857-0.555-0.971l-4.529-1.201
	C88.665,33.343,88.546,33.357,88.446,33.371z"/><path style="fill:#E74C3C;" d="M82.391,36.282c-0.201,0-0.401,0.077-0.555,0.231l-3.328,3.328c-0.309,0.308-0.309,0.801,0,1.109l3.051,3.004
	c0.308,0.308,0.801,0.308,1.109,0l3.281-3.328c0.308-0.308,0.308-0.801,0-1.109l-3.004-3.004
	C82.792,36.359,82.591,36.283,82.391,36.282L82.391,36.282z"/><path style="fill:#E74C3C;" d="M76.29,38.039c-0.102-0.014-0.219,0.018-0.324,0.046l-4.529,1.202c-0.42,0.112-0.667,0.55-0.555,0.971l1.109,4.113
	c0.113,0.421,0.551,0.667,0.971,0.555l4.529-1.202c0.421-0.112,0.668-0.55,0.555-0.97l-1.109-4.114
	C76.852,38.324,76.592,38.081,76.29,38.039L76.29,38.039z"/><path style="fill:#E74C3C;" d="M99.077,44.879c-1.106,1.298-2.493,2.467-4.114,3.467c-3.657,2.256-8.479,3.692-13.819,4.021h-0.186
	c-0.703,0.04-1.406,0.092-2.126,0.092s-1.423-0.056-2.126-0.092H76.52c-5.339-0.329-10.162-1.766-13.819-4.021
	c-1.588-0.979-2.972-2.107-4.067-3.374c-0.196,1.317-0.242,2.651,0,3.976c0.069,5.098,4.02,8.954,8.043,10.908
	c8.367,4.044,18.632,3.713,26.576-1.341c3.16-2.079,5.685-5.58,5.824-9.706C99.241,47.506,99.239,46.184,99.077,44.879
	L99.077,44.879z"/><text x="0" y="77.626" fill="#000000" font-size="5px" font-weight="bold" font-family="'Helvetica Neue', Helvetica, Arial-Unicode, Arial, Sans-serif"></text><text x="0" y="82.626" fill="#000000" font-size="5px" font-weight="bold" font-family="'Helvetica Neue', Helvetica, Arial-Unicode, Arial, Sans-serif"></text></svg>
